# Blender v2.82 (sub 7) OBJ File: ''
# www.blender.org
mtllib default.mtl
usemtl default
v 0.006262 0.482304 0.168067
v 0.006270 0.473744 0.153975
v 0.006276 0.511343 0.131135
v 0.006193 0.039934 0.436775
v 0.005981 0.510653 0.130000
v 0.006268 0.519904 0.145228
v 0.006201 0.031374 0.422682
v 0.005896 0.040624 0.437910
v 0.005975 0.473054 0.152839
v 0.005990 0.568535 0.094841
v 0.006285 0.569225 0.095977
v 0.005966 0.482992 0.169200
v 0.005905 0.030042 0.423491
v 0.005896 0.039452 0.438232
v 0.005093 0.510425 0.129623
v 0.005102 0.568306 0.094464
v 0.006277 0.577785 0.110069
v 0.005972 0.520591 0.146361
v 0.005897 0.038602 0.437584
v 0.005905 0.029859 0.422439
v 0.005905 0.030684 0.421547
v 0.005008 0.039292 0.438719
v 0.005008 0.040853 0.438287
v 0.005087 0.472825 0.152462
v 0.005768 0.569534 0.094234
v 0.005981 0.579117 0.109260
v 0.005078 0.483222 0.169579
v 0.005017 0.029609 0.423754
v 0.005018 0.029352 0.422356
v 0.005009 0.038169 0.437847
v -0.005938 0.510423 0.129618
v -0.005929 0.568304 0.094459
v 0.005102 0.569867 0.094032
v 0.005989 0.570557 0.095167
v 0.005759 0.579633 0.110110
v 0.005981 0.578473 0.111202
v 0.005084 0.520822 0.146740
v 0.005018 0.030456 0.421170
v -0.006023 0.039290 0.438714
v -0.006023 0.040851 0.438281
v -0.005944 0.472824 0.152457
v 0.005094 0.579550 0.108997
v 0.005089 0.515456 0.137907
v -0.006023 0.038168 0.437841
v -0.006015 0.029607 0.423749
v -0.006014 0.029351 0.422350
v -0.005954 0.483221 0.169573
v -0.006825 0.510652 0.129994
v -0.006816 0.568533 0.094835
v -0.005929 0.569865 0.094026
v 0.005102 0.570989 0.094904
v 0.005093 0.579806 0.110395
v 0.005093 0.578703 0.111581
v -0.005943 0.515455 0.137901
v 0.005083 0.477857 0.160746
v -0.006014 0.030454 0.421165
v -0.006689 0.039623 0.438511
v -0.006910 0.040622 0.437904
v -0.006831 0.473052 0.152833
v -0.006595 0.569532 0.094228
v -0.005930 0.570988 0.094899
v -0.005938 0.579548 0.108991
v -0.005948 0.520820 0.146734
v -0.006901 0.030040 0.423485
v -0.006680 0.029524 0.422635
v -0.006911 0.038601 0.437578
v -0.005949 0.477855 0.160740
v -0.006840 0.482992 0.169196
v -0.007123 0.511341 0.131129
v -0.007114 0.569223 0.095970
v -0.006819 0.570555 0.095161
v -0.005939 0.579805 0.110390
v -0.005939 0.578702 0.111575
v -0.006901 0.030683 0.421541
v -0.007206 0.039933 0.436769
v -0.007129 0.473742 0.153968
v -0.006824 0.579115 0.109254
v -0.006604 0.579632 0.110104
v -0.006834 0.520591 0.146357
v -0.007198 0.031372 0.422676
v -0.007137 0.482302 0.168061
v -0.007131 0.519902 0.145222
v -0.007122 0.577783 0.110063
v -0.006825 0.578473 0.111198
vt 0.943093 0.349337
vt 0.953584 0.349336
vt 0.953584 0.377426
vt 0.943093 0.018853
vt 0.954430 0.377427
vt 0.943092 0.377426
vt 0.953585 0.018853
vt 0.942247 0.018854
vt 0.954429 0.349338
vt 0.954429 0.420669
vt 0.953584 0.420668
vt 0.942249 0.349338
vt 0.953584 0.017859
vt 0.942460 0.018108
vt 0.999919 0.090149
vt 0.999353 0.062078
vt 0.999919 0.062071
vt 0.999353 0.018854
vt 0.999918 0.018846
vt 0.943093 0.420668
vt 0.942249 0.377427
vt 0.943093 0.017859
vt 0.954217 0.018108
vt 0.954430 0.018854
vt 0.991040 0.017853
vt 0.991607 0.018103
vt 0.991605 0.018848
vt 0.991607 0.349336
vt 0.991037 0.018846
vt 0.999353 0.090157
vt 0.999777 0.018099
vt 0.954429 0.421417
vt 0.943092 0.421665
vt 0.991607 0.377426
vt 0.991039 0.349334
vt 0.667475 0.940745
vt 0.667474 0.930410
vt 0.668050 0.940686
vt 0.667468 0.941415
vt 0.668040 0.941580
vt 0.999918 0.420503
vt 0.668048 0.930351
vt 0.667467 0.929833
vt 0.668039 0.929580
vt 0.992334 0.062079
vt 0.992334 0.018854
vt 0.999353 0.017851
vt 0.953584 0.421665
vt 0.942460 0.421665
vt 0.942249 0.420669
vt 0.991039 0.377424
vt 0.999919 0.421242
vt 0.999354 0.421498
vt 0.999354 0.420511
vt 0.675055 0.929620
vt 0.984018 0.018847
vt 0.992334 0.090157
vt 0.821145 0.784763
vt 0.821569 0.784748
vt 0.821004 0.785595
vt 0.821569 0.796083
vt 0.821004 0.796103
vt 0.821145 0.796737
vt 0.991607 0.420668
vt 0.820822 0.743549
vt 0.820822 0.771640
vt 0.814246 0.771640
vt 0.675065 0.930391
vt 0.675066 0.940725
vt 0.992335 0.421497
vt 0.984021 0.017853
vt 0.984020 0.349335
vt 0.991770 0.062070
vt 0.991770 0.018846
vt 0.992334 0.017851
vt 0.821568 0.785574
vt 0.991468 0.421665
vt 0.991042 0.421663
vt 0.821569 0.796949
vt 0.991039 0.420667
vt 0.648326 0.590370
vt 0.641871 0.590408
vt 0.648326 0.583329
vt 0.814246 0.743550
vt 0.675056 0.941620
vt 0.992334 0.420511
vt 0.983598 0.018102
vt 0.675471 0.929670
vt 0.635178 0.590373
vt 0.641741 0.583329
vt 0.641741 0.590373
vt 0.983457 0.018848
vt 0.991770 0.090149
vt 0.991911 0.018100
vt 0.828588 0.784748
vt 0.828588 0.785574
vt 0.828588 0.796082
vt 0.984020 0.377425
vt 0.641871 0.583367
vt 0.675620 0.940791
vt 0.675480 0.941413
vt 0.991911 0.421491
vt 0.675620 0.930456
vt 0.635177 0.583329
vt 0.983459 0.349337
vt 0.240516 0.334778
vt 0.239670 0.306688
vt 0.240515 0.306687
vt 0.239670 0.263444
vt 0.240516 0.263444
vt 0.239670 0.262449
vt 0.240516 0.262698
vt 0.829011 0.784763
vt 0.984023 0.421664
vt 0.828589 0.796949
vt 0.984020 0.420668
vt 0.116038 0.842786
vt 0.116038 0.814696
vt 0.122614 0.814696
vt 0.991770 0.420503
vt 0.228334 0.666017
vt 0.228334 0.665271
vt 0.229179 0.666266
vt 0.122614 0.842786
vt 0.228333 0.334778
vt 0.229179 0.665271
vt 0.239670 0.334778
vt 0.829153 0.785594
vt 0.829152 0.796103
vt 0.829012 0.796736
vt 0.983459 0.377426
vt 0.239671 0.665271
vt 0.239671 0.666266
vt 0.240516 0.665271
vt 0.240304 0.666266
vt 0.229179 0.334778
vt 0.229178 0.306687
vt 0.229178 0.263444
vt 0.983602 0.421665
vt 0.983459 0.420669
vt 0.228334 0.306688
vt 0.229179 0.262449
vt 0.228333 0.263444
vt 0.228546 0.262449
vn 1.0000 0.0001 0.0005
vn 0.9762 -0.1126 -0.1851
vn 0.9762 -0.1127 -0.1852
vn 0.9759 0.1132 0.1866
vn 0.9760 0.1130 0.1863
vn 0.9759 0.1131 0.1864
vn 0.9824 -0.1592 0.0973
vn 0.9761 -0.1130 -0.1858
vn 0.9741 0.2180 -0.0597
vn 0.4449 -0.4650 -0.7654
vn 0.4445 -0.4651 -0.7656
vn 0.4448 -0.4650 -0.7654
vn 0.9798 0.0343 0.1969
vn 0.9798 0.1592 0.1210
vn 0.4321 0.2399 0.8693
vn 0.4338 0.8689 -0.2384
vn 0.4324 0.2397 0.8692
vn 0.4448 0.4649 0.7655
vn 0.4458 0.4647 0.7651
vn 0.4457 0.4647 0.7651
vn 0.4432 -0.8064 0.3915
vn 0.4433 -0.8064 0.3915
vn 0.9599 0.0451 -0.2767
vn 0.9598 -0.2770 -0.0448
vn 0.9824 0.1597 -0.0965
vn 0.9824 0.1597 -0.0964
vn 0.4471 0.4643 0.7645
vn 0.4467 0.4644 0.7647
vn 0.4955 -0.7423 0.4511
vn 0.4955 -0.7422 0.4511
vn 0.4793 0.1509 0.8646
vn 0.4746 -0.8663 0.1558
vn 0.9742 -0.1533 0.1657
vn 0.4740 -0.5371 0.6977
vn 0.4690 0.7026 0.5351
vn 0.4740 -0.5371 0.6978
vn 0.4777 0.6941 0.5385
vn 0.4304 0.8698 -0.2411
vn 0.0004 -0.5192 -0.8547
vn 0.0005 -0.5192 -0.8547
vn 0.1573 -0.9517 0.2636
vn 0.1574 -0.9517 0.2636
vn 0.9599 0.0450 -0.2767
vn 0.9596 0.2670 0.0885
vn 0.9596 0.0890 -0.2670
vn 0.4706 0.1594 0.8678
vn 0.4328 -0.6607 -0.6133
vn 0.4343 -0.6137 0.6593
vn 0.4326 -0.6608 -0.6133
vn 0.4310 -0.6129 0.6623
vn -0.0003 -0.6138 0.7895
vn -0.0002 -0.6133 0.7898
vn -0.0003 -0.6136 0.7896
vn -0.0006 0.2668 0.9638
vn -0.0006 0.2667 0.9638
vn -0.0005 0.2669 0.9637
vn -0.0006 0.5192 0.8547
vn -0.0005 0.5192 0.8547
vn 0.0005 -0.2668 -0.9638
vn 0.0005 -0.2667 -0.9638
vn 0.4787 -0.6977 -0.5329
vn 0.4738 0.5379 -0.6973
vn 0.4737 0.5380 -0.6973
vn 0.4958 0.7424 -0.4507
vn 0.4960 0.7423 -0.4506
vn 0.9596 0.2670 0.0886
vn 0.4929 -0.3538 -0.7949
vn -1.0000 -0.0001 -0.0005
vn -0.0001 -0.8547 0.5192
vn -0.0002 -0.8547 0.5191
vn -0.0002 -0.8547 0.5192
vn 0.0000 -0.9836 0.1803
vn 0.0001 -0.9835 0.1808
vn 0.0000 -0.9836 0.1804
vn 0.0004 -0.7320 -0.6813
vn -0.0005 0.2673 0.9636
vn -0.0004 -0.6141 0.7892
vn -0.4442 -0.4651 -0.7658
vn -0.4446 -0.4650 -0.7656
vn 0.0006 -0.2673 -0.9636
vn 0.4704 -0.6968 -0.5415
vn 0.4953 0.7426 -0.4508
vn 0.4335 0.6601 0.6135
vn 0.4339 0.6131 -0.6602
vn 0.4332 0.6601 0.6137
vn 0.1757 -0.1780 -0.9682
vn -0.0001 -0.8546 0.5192
vn -0.0000 -0.9837 0.1800
vn -0.1580 0.9515 -0.2639
vn -0.1581 0.9515 -0.2639
vn -0.4742 -0.5380 0.6970
vn -0.4802 0.6926 0.5383
vn -0.4742 -0.5380 0.6969
vn 0.0002 0.8547 -0.5192
vn 0.0002 0.8547 -0.5191
vn -0.4453 0.4649 0.7652
vn -0.4457 0.4648 0.7651
vn -0.4429 -0.8064 0.3919
vn -0.4431 -0.8063 0.3919
vn -0.4430 -0.8063 0.3919
vn -0.1565 -0.9517 0.2640
vn -0.1566 -0.9517 0.2640
vn 0.0003 0.6137 -0.7895
vn 0.0003 0.6136 -0.7896
vn 0.0001 0.8547 -0.5192
vn 0.4334 0.6140 -0.6597
vn -0.0001 0.9836 -0.1801
vn -0.0001 0.9836 -0.1803
vn -0.0001 -0.8547 0.5191
vn -0.4968 -0.7419 0.4504
vn -0.4962 -0.7421 0.4505
vn -0.4961 -0.7422 0.4506
vn -0.1758 0.1775 0.9683
vn -0.1759 0.1775 0.9683
vn -0.4322 -0.6606 -0.6138
vn -0.4343 -0.6137 0.6593
vn -0.4322 -0.6607 -0.6138
vn -0.4437 0.8061 -0.3916
vn -0.4694 0.7007 0.5374
vn -0.9757 -0.1135 -0.1872
vn -0.9757 -0.1136 -0.1872
vn -0.9596 0.0434 -0.2782
vn -0.9596 -0.2780 -0.0434
vn -0.4731 0.5377 -0.6979
vn -0.4797 -0.6929 -0.5382
vn -0.0004 0.7323 0.6810
vn -0.0004 0.7320 0.6813
vn -0.0004 0.7322 0.6810
vn -0.0000 0.9835 -0.1807
vn -0.4955 -0.7425 0.4507
vn -0.4931 0.3541 0.7946
vn -0.4932 0.3541 0.7946
vn -0.4307 -0.6134 0.6620
vn -0.9598 0.2771 0.0439
vn -0.9599 -0.0442 0.2770
vn -0.9760 0.1131 0.1859
vn -0.9760 0.1132 0.1862
vn -0.9595 0.0435 -0.2783
vn -0.4688 -0.7013 -0.5371
vn -0.4956 0.7422 -0.4511
vn -0.4955 0.7423 -0.4511
vn -0.4964 0.7418 -0.4509
vn -0.0004 0.7319 0.6814
vn -0.1755 -0.1780 -0.9683
vn -0.1755 -0.1780 -0.9682
vn -0.9824 -0.1599 0.0965
vn -0.9824 -0.1597 0.0964
vn -0.9823 -0.1603 0.0967
vn -0.9597 -0.2668 -0.0883
vn -0.9596 -0.2671 -0.0884
vn -0.9599 -0.0880 0.2661
vn -0.9758 -0.1134 -0.1869
vn -0.9598 -0.0442 0.2772
vn -0.9759 0.1134 0.1864
vn -0.9824 0.1597 -0.0974
vn -0.9824 0.1594 -0.0973
vn -0.9826 0.1587 -0.0970
vn -0.4947 0.7427 -0.4513
vn -0.4930 -0.3546 -0.7945
vn -0.4931 -0.3546 -0.7945
vn -0.4352 0.6134 -0.6590
vn -0.4334 0.6603 0.6134
vn -0.4333 0.6604 0.6133
vn -0.9826 -0.1592 0.0962
vn -0.9594 -0.2677 -0.0885
vn -0.9759 -0.1132 -0.1866
vn -0.9759 0.1134 0.1865
vn -0.9822 0.1604 -0.0978
vn -0.9598 0.2668 0.0876
vn -0.9600 0.0874 -0.2661
vn -0.9598 0.2666 0.0876
vn -0.4320 0.6134 -0.6612
vn -0.9594 0.2681 0.0881
f 1/1/1 2/2/1 3/3/1
f 4/4/1 2/2/1 1/1/1
f 2/2/2 5/5/3 3/3/3
f 1/1/1 3/3/1 6/6/1
f 4/4/1 7/7/1 2/2/1
f 8/8/4 4/4/4 1/1/5
f 2/2/2 9/9/2 5/5/3
f 3/3/3 5/5/3 10/10/2
f 6/6/1 3/3/1 11/11/1
f 12/12/5 1/1/5 6/6/6
f 4/4/7 13/13/7 7/7/7
f 7/7/8 9/9/2 2/2/2
f 14/14/9 4/4/9 8/8/9
f 8/8/4 1/1/5 12/12/5
f 9/15/10 15/16/10 5/17/11
f 5/17/11 16/18/12 10/19/12
f 3/3/3 10/10/2 11/11/2
f 6/6/1 11/11/1 17/20/1
f 12/12/5 6/6/6 18/21/6
f 19/22/7 13/13/7 4/4/7
f 13/13/13 20/23/13 7/7/13
f 7/7/8 21/24/8 9/9/2
f 14/14/14 19/22/14 4/4/14
f 22/25/15 14/26/16 8/27/17
f 8/27/18 12/28/19 23/29/20
f 24/30/10 15/16/10 9/15/10
f 15/16/10 16/18/12 5/17/11
f 16/18/21 25/31/22 10/19/22
f 11/11/23 10/10/24 25/32/23
f 17/20/25 11/11/26 26/33/25
f 18/21/6 6/6/6 17/20/5
f 12/28/19 18/34/27 27/35/28
f 13/36/29 19/37/30 28/38/29
f 20/39/31 13/36/32 29/40/32
f 7/7/33 20/23/33 21/24/33
f 21/41/10 24/30/10 9/15/10
f 30/42/34 19/37/35 14/43/36
f 30/42/34 14/43/36 22/44/37
f 22/25/15 8/27/17 23/29/38
f 23/29/20 12/28/19 27/35/28
f 24/30/39 31/45/40 15/16/40
f 15/16/40 32/46/40 16/18/40
f 16/18/41 33/47/42 25/31/41
f 11/11/23 25/32/23 34/48/43
f 26/33/25 11/11/26 34/48/26
f 35/49/44 17/20/44 26/33/45
f 18/21/6 17/20/5 36/50/5
f 27/35/28 18/34/27 37/51/27
f 19/37/30 30/42/30 28/38/29
f 13/36/32 28/38/46 29/40/32
f 20/52/47 29/53/48 38/54/49
f 21/41/50 20/52/47 38/54/49
f 38/54/10 24/30/10 21/41/10
f 30/42/51 22/44/52 39/55/53
f 22/25/54 23/29/55 40/56/56
f 40/56/57 23/29/57 27/35/58
f 41/57/39 31/45/40 24/30/39
f 31/45/40 32/46/40 15/16/40
f 32/46/59 33/47/59 16/18/60
f 25/58/61 33/59/62 34/60/63
f 34/60/64 42/61/65 26/62/65
f 36/50/66 17/20/44 35/49/44
f 26/62/67 42/61/67 35/63/67
f 18/34/27 36/64/28 37/51/27
f 27/65/68 37/66/68 43/67/68
f 28/38/69 30/42/70 44/68/71
f 29/40/72 28/38/73 45/69/74
f 38/54/75 29/53/75 46/70/75
f 38/54/40 41/57/39 24/30/39
f 39/71/76 22/25/54 40/56/56
f 44/68/77 30/42/51 39/55/53
f 40/56/57 27/35/58 47/72/58
f 41/57/78 48/73/79 31/45/79
f 31/45/79 49/74/79 32/46/79
f 32/46/59 50/75/80 33/47/59
f 33/59/62 51/76/81 34/60/63
f 34/60/64 51/76/82 42/61/65
f 36/64/83 35/77/84 52/78/85
f 35/63/86 42/61/86 52/79/86
f 37/51/27 36/64/28 53/80/28
f 43/81/71 37/82/71 54/83/71
f 27/65/68 43/67/68 55/84/68
f 28/38/69 44/68/71 45/69/87
f 29/40/72 45/69/74 46/85/88
f 38/54/75 46/70/75 56/86/75
f 56/86/40 41/57/39 38/54/40
f 39/71/89 40/56/90 57/87/89
f 44/68/91 39/55/92 57/88/93
f 55/89/94 47/90/94 27/91/95
f 58/92/96 40/56/96 47/72/97
f 41/57/78 59/93/79 48/73/79
f 31/45/79 48/73/79 49/74/79
f 32/46/98 49/74/99 60/94/100
f 32/46/101 60/94/102 50/75/102
f 50/95/103 51/76/104 33/59/104
f 51/76/94 61/96/105 42/61/105
f 36/64/83 52/78/85 53/80/106
f 42/61/107 62/97/108 52/79/107
f 63/98/57 37/51/57 53/80/58
f 37/82/71 63/99/109 54/83/71
f 45/69/110 44/68/111 64/100/112
f 46/85/113 45/69/114 65/101/114
f 56/86/115 46/70/116 65/102/117
f 56/86/79 59/93/79 41/57/78
f 57/87/118 40/56/118 58/92/118
f 44/68/91 57/88/93 66/103/119
f 55/89/94 67/104/105 47/90/94
f 58/92/96 47/72/97 68/105/97
f 59/106/120 69/107/121 48/108/121
f 48/108/121 70/109/120 49/110/120
f 71/111/122 60/112/123 49/110/122
f 60/113/124 61/96/124 50/95/125
f 50/95/103 61/96/103 51/76/104
f 42/61/105 61/96/105 62/97/105
f 52/78/126 72/114/127 53/80/128
f 52/79/107 62/97/108 72/115/129
f 63/98/57 53/80/58 73/116/58
f 67/117/1 54/118/1 63/119/1
f 44/68/111 66/103/130 64/100/112
f 45/69/131 64/100/132 65/101/131
f 56/86/115 65/102/117 74/120/133
f 56/86/79 74/120/79 59/93/79
f 57/121/134 58/122/135 66/123/135
f 47/124/1 67/117/1 63/119/1
f 68/105/97 47/72/97 63/98/97
f 58/122/136 68/125/137 75/126/136
f 76/127/120 69/107/121 59/106/120
f 69/107/121 70/109/120 48/108/121
f 70/109/138 71/111/122 49/110/122
f 60/113/124 71/128/139 61/96/124
f 61/96/140 77/129/141 62/97/142
f 53/80/128 72/114/127 73/116/143
f 62/97/144 78/130/145 72/115/144
f 79/131/97 63/98/97 73/116/97
f 66/123/146 80/132/147 64/133/148
f 64/133/149 74/134/150 65/135/151
f 74/134/152 76/127/120 59/106/120
f 58/122/135 75/126/153 66/123/135
f 68/105/97 63/98/97 79/131/97
f 75/126/136 68/125/137 81/136/154
f 76/127/68 82/137/68 69/107/68
f 69/107/68 83/138/68 70/109/68
f 83/138/155 71/111/156 70/109/157
f 61/96/140 71/128/158 77/129/141
f 62/97/159 77/129/159 78/130/160
f 72/114/161 78/139/162 73/116/163
f 79/131/97 73/116/97 84/140/97
f 66/123/146 75/126/164 80/132/147
f 64/133/149 80/132/165 74/134/150
f 80/132/166 76/127/120 74/134/152
f 68/125/137 79/141/167 81/136/154
f 75/126/68 81/136/68 80/132/68
f 81/136/68 82/137/68 76/127/68
f 82/137/68 83/138/68 69/107/68
f 83/138/155 77/142/168 71/111/156
f 84/143/169 78/144/170 77/142/171
f 73/116/163 78/139/162 84/140/172
f 79/141/167 84/143/154 82/137/167
f 80/132/68 81/136/68 76/127/68
f 81/136/154 79/141/167 82/137/167
f 82/137/167 84/143/154 83/138/154
f 84/143/169 77/142/171 83/138/173
