# Blender v2.82 (sub 7) OBJ File: ''
# www.blender.org
mtllib default.mtl
usemtl default
v 0.020633 -0.076655 -0.512843
v 0.020633 -0.064396 -0.521016
v 0.020633 -0.076655 -0.521016
v 0.020633 -0.064396 -0.512843
v 0.081931 -0.076655 -0.521016
v 0.081931 -0.064396 -0.512843
v 0.081931 -0.064396 -0.521016
v 0.081931 -0.076655 -0.512843
vt 0.397806 0.214475
vt 0.395803 0.217426
vt 0.395803 0.214475
vt 0.397806 0.217426
vt 0.537303 0.200728
vt 0.540306 0.185974
vt 0.540306 0.200728
vt 0.579768 0.205744
vt 0.577766 0.190990
vt 0.579768 0.190990
vt 0.540936 0.215778
vt 0.543939 0.201024
vt 0.543939 0.215778
vt 0.581810 0.205744
vt 0.579808 0.190990
vt 0.581810 0.190990
vt 0.537303 0.185974
vt 0.577766 0.205744
vt 0.540936 0.201024
vt 0.579808 0.205744
vt 0.501918 0.190001
vt 0.503920 0.187050
vt 0.503920 0.190001
vt 0.501918 0.187050
vn -1.0000 0.0000 0.0000
vn 0.0000 0.0000 -1.0000
vn 0.0000 -1.0000 0.0000
vn 0.0000 0.0000 1.0000
vn 0.0000 1.0000 0.0000
vn 1.0000 0.0000 0.0000
f 1/1/1 2/2/1 3/3/1
f 2/2/1 1/1/1 4/4/1
f 2/5/2 5/6/2 3/7/2
f 5/8/3 1/9/3 3/10/3
f 1/11/4 6/12/4 4/13/4
f 6/14/5 2/15/5 4/16/5
f 5/6/2 2/5/2 7/17/2
f 1/9/3 5/8/3 8/18/3
f 6/12/4 1/11/4 8/19/4
f 2/15/5 6/14/5 7/20/5
f 6/21/6 5/22/6 7/23/6
f 5/22/6 6/21/6 8/24/6
