# Blender v2.82 (sub 7) OBJ File: 'f90c23de385d10f62f5fb84eadb6c469.blend'
# www.blender.org
mtllib default.mtl
usemtl default
v -0.113416 0.107012 0.058294
v -0.129370 0.042487 0.051203
v -0.113416 0.107012 0.051203
v -0.129370 0.107012 0.051203
v -0.121393 0.042487 0.051203
v -0.113416 0.042487 0.051203
v -0.129370 0.107012 0.058294
v -0.097463 0.042487 0.051203
v -0.097463 0.107012 0.051203
v -0.177232 0.107012 0.051203
v -0.177232 0.042487 0.051203
v -0.089486 0.042487 0.051203
v -0.081509 0.107012 0.058294
v -0.097463 0.107012 0.058294
v -0.081509 0.107012 0.051203
v -0.177232 0.107012 0.058294
v -0.185209 0.042487 0.051203
v -0.081509 0.042487 0.051203
v -0.193185 0.107012 0.051203
v -0.065555 0.042487 0.051203
v -0.065555 0.107012 0.051203
v -0.193185 0.107012 0.058294
v -0.193185 0.042487 0.051203
v -0.057578 0.042487 0.051203
v -0.209139 0.107012 0.051203
v -0.209139 0.042487 0.051203
v -0.049601 0.107012 0.058294
v -0.217116 0.042487 0.051203
v -0.049601 0.042487 0.051203
v -0.065555 0.107012 0.058294
v -0.049601 0.107012 0.051203
v -0.209139 0.107012 0.058294
v -0.225093 0.042487 0.051203
v -0.225093 0.107012 0.051203
v -0.225093 0.107012 0.058294
v 0.006237 0.042487 0.051203
v -0.001740 0.042487 0.051203
v 0.014214 0.042487 0.051203
v -0.001740 0.107012 0.051203
v 0.038145 0.042487 0.051203
v 0.030168 0.042487 0.051203
v 0.014214 0.107012 0.058294
v 0.046121 0.042487 0.051203
v 0.014214 0.107012 0.051203
v -0.001740 0.107012 0.058294
v 0.030168 0.107012 0.051203
v 0.046121 0.107012 0.051203
v 0.101960 0.042487 0.051203
v 0.093983 0.042487 0.051203
v 0.109937 0.042487 0.051203
v 0.093983 0.107012 0.051203
v 0.046121 0.107012 0.058294
v 0.030168 0.107012 0.058294
v 0.133867 0.042487 0.051203
v 0.125890 0.042487 0.051203
v 0.141844 0.042487 0.051203
v 0.109937 0.107012 0.051203
v 0.109937 0.107012 0.058294
v 0.165775 0.042487 0.051203
v 0.157798 0.042487 0.051203
v 0.125890 0.107012 0.051203
v 0.093983 0.107012 0.058294
v 0.173752 0.042487 0.051203
v 0.141844 0.107012 0.051203
v 0.157798 0.107012 0.051203
v 0.173752 0.107012 0.051203
v 0.141844 0.107012 0.058294
v 0.125890 0.107012 0.058294
v 0.173752 0.107012 0.058294
v 0.157798 0.107012 0.058294
v -0.129370 0.042487 0.058294
v -0.113416 0.042487 0.058294
v -0.121393 0.042487 0.058294
v -0.097463 0.042487 0.058294
v -0.089486 0.042487 0.058294
v -0.081509 0.042487 0.058294
v -0.177232 0.042487 0.058294
v -0.193185 0.042487 0.058294
v -0.185209 0.042487 0.058294
v -0.057578 0.042487 0.058294
v -0.065555 0.042487 0.058294
v -0.049601 0.042487 0.058294
v -0.209139 0.042487 0.058294
v -0.217116 0.042487 0.058294
v -0.225093 0.042487 0.058294
v -0.001740 0.042487 0.058294
v 0.006237 0.042487 0.058294
v 0.014214 0.042487 0.058294
v 0.038145 0.042487 0.058294
v 0.046121 0.042487 0.058294
v 0.030168 0.042487 0.058294
v 0.093983 0.042487 0.058294
v 0.101960 0.042487 0.058294
v 0.109937 0.042487 0.058294
v 0.133867 0.042487 0.058294
v 0.141844 0.042487 0.058294
v 0.125890 0.042487 0.058294
v 0.165775 0.042487 0.058294
v 0.173752 0.042487 0.058294
v 0.157798 0.042487 0.058294
vt 0.441887 0.970213
vt 0.445270 0.970213
vt 0.441887 0.938909
vt 0.390529 0.888108
vt 0.393912 0.888108
vt 0.390529 0.856804
vt 0.393912 0.856804
vt 0.764963 0.790177
vt 0.764963 0.821455
vt 0.772576 0.790177
vt 0.445270 0.938909
vt 0.782740 0.364956
vt 0.782740 0.368826
vt 0.786124 0.364956
vt 0.782740 0.372696
vt 0.786124 0.368826
vt 0.772576 0.821455
vt 0.786124 0.372696
vt 0.648529 0.916846
vt 0.651912 0.916846
vt 0.648529 0.885542
vt 0.000000 0.000000
vt 0.000000 0.000000
vt 0.000000 0.000000
vt 0.651912 0.885542
vt 0.796544 0.372696
vt 0.799928 0.372696
vt 0.796544 0.368826
vt 0.799928 0.368826
vt 0.459143 0.970213
vt 0.462527 0.970213
vt 0.459143 0.938909
vt 0.855994 0.899922
vt 0.855994 0.931201
vt 0.863607 0.899922
vt 0.000000 0.000000
vt 0.000000 0.000000
vt 0.000000 0.000000
vt 0.796544 0.364956
vt 0.452241 0.970213
vt 0.455624 0.970213
vt 0.452241 0.938909
vt 0.462527 0.938909
vt 0.217530 0.815881
vt 0.214147 0.815881
vt 0.217530 0.819751
vt 0.863607 0.931201
vt 0.799928 0.364956
vt 0.455624 0.938909
vt 0.772712 0.936287
vt 0.772712 0.905009
vt 0.765099 0.936287
vt 0.214147 0.819751
vt 0.951322 0.210840
vt 0.947939 0.210840
vt 0.951322 0.242143
vt 0.765099 0.905009
vt 0.000000 0.000000
vt 0.000000 0.000000
vt 0.000000 0.000000
vt 0.217530 0.823620
vt 0.796477 0.368826
vt 0.793093 0.368826
vt 0.796477 0.372696
vt 0.648529 0.884916
vt 0.651912 0.884916
vt 0.648529 0.853612
vt 0.947939 0.242143
vt 0.214147 0.823620
vt 0.793093 0.372696
vt 0.793093 0.364956
vt 0.651912 0.853612
vt 0.231027 0.553060
vt 0.227643 0.553060
vt 0.231027 0.556930
vt 0.455692 0.970213
vt 0.459075 0.970213
vt 0.455692 0.938909
vt 0.796477 0.364956
vt 0.000000 0.000000
vt 0.000000 0.000000
vt 0.000000 0.000000
vt 0.855940 0.825134
vt 0.855940 0.856412
vt 0.863553 0.825134
vt 0.438435 0.970213
vt 0.441819 0.970213
vt 0.438435 0.938909
vt 0.227643 0.556930
vt 0.459075 0.938909
vt 0.231027 0.560800
vt 0.441819 0.938909
vt 0.863553 0.856412
vt 0.000000 0.000000
vt 0.000000 0.000000
vt 0.000000 0.000000
vt 0.651870 0.821082
vt 0.651870 0.789804
vt 0.644257 0.821082
vt 0.389800 0.961547
vt 0.393183 0.961547
vt 0.389800 0.930243
vt 0.227643 0.560800
vt 0.393183 0.930243
vt 0.644257 0.789804
vt 0.779289 0.364956
vt 0.779289 0.368826
vt 0.782673 0.364956
vt 0.779289 0.372696
vt 0.782673 0.368826
vt 0.848192 0.491768
vt 0.851576 0.491768
vt 0.848192 0.460464
vt 0.782673 0.372696
vt 0.851576 0.460464
vt 0.220981 0.819750
vt 0.217598 0.819750
vt 0.220981 0.823620
vt 0.220981 0.815881
vt 0.217598 0.815881
vt 0.000000 0.000000
vt 0.000000 0.000000
vt 0.000000 0.000000
vt 0.765057 0.968217
vt 0.768441 0.968217
vt 0.765057 0.936913
vt 0.768441 0.936913
vt 0.764963 0.822081
vt 0.764963 0.853359
vt 0.772576 0.822081
vt 0.217598 0.823620
vt 0.438368 0.938909
vt 0.434984 0.938909
vt 0.438368 0.970213
vt 0.772576 0.853359
vt 0.846882 0.452136
vt 0.850265 0.452136
vt 0.846882 0.420832
vt 0.000000 0.000000
vt 0.000000 0.000000
vt 0.000000 0.000000
vt 0.434984 0.970213
vt 0.617450 0.952661
vt 0.617450 0.921383
vt 0.609838 0.952661
vt 0.850265 0.420832
vt 0.609838 0.921383
vt 0.789642 0.364956
vt 0.789642 0.368826
vt 0.793026 0.364956
vt 0.789642 0.372696
vt 0.793026 0.368826
vt 0.846882 0.420206
vt 0.850265 0.420206
vt 0.846882 0.388902
vt 0.793026 0.372696
vt 0.850265 0.388902
vt 0.221996 0.556930
vt 0.225379 0.556930
vt 0.221996 0.553060
vt 0.221996 0.560800
vt 0.225379 0.560800
vt 0.000000 0.000000
vt 0.000000 0.000000
vt 0.000000 0.000000
vt 0.769370 0.968217
vt 0.772754 0.968217
vt 0.769370 0.936913
vt 0.772754 0.936913
vt 0.644257 0.821708
vt 0.644257 0.852986
vt 0.651870 0.821708
vt 0.225379 0.553060
vt 0.452173 0.938909
vt 0.448789 0.938909
vt 0.452173 0.970213
vt 0.651870 0.852986
vt 0.846882 0.388276
vt 0.850265 0.388276
vt 0.846882 0.356972
vt 0.789575 0.368826
vt 0.786191 0.368826
vt 0.789575 0.372696
vt 0.789575 0.364956
vt 0.786191 0.364956
vt 0.000000 0.000000
vt 0.000000 0.000000
vt 0.000000 0.000000
vt 0.448789 0.970213
vt 0.772576 0.885262
vt 0.772576 0.853984
vt 0.764963 0.885262
vt 0.850265 0.356972
vt 0.786191 0.372696
vt 0.448722 0.938909
vt 0.445338 0.938909
vt 0.448722 0.970213
vt 0.390529 0.856178
vt 0.393912 0.856178
vt 0.390529 0.824874
vt 0.764963 0.853984
vt 0.000000 0.000000
vt 0.000000 0.000000
vt 0.000000 0.000000
vt 0.445338 0.970213
vt 0.863553 0.888316
vt 0.863553 0.857038
vt 0.855940 0.888316
vt 0.393912 0.824874
vt 0.855940 0.857038
vn 1.0000 0.0000 0.0000
vn -1.0000 0.0000 0.0000
vn 0.0000 0.0000 1.0000
vn 0.0000 -1.0000 0.0000
f 3/1/1 1/2/1 6/3/1
f 2/4/2 71/5/2 4/6/2
f 7/7/2 4/6/2 71/5/2
f 7/8/3 71/9/3 1/10/3
f 72/11/1 6/3/1 1/2/1
f 2/12/4 5/13/4 71/14/4
f 5/13/4 6/15/4 73/16/4
f 72/17/3 1/10/3 71/9/3
f 72/18/4 73/16/4 6/15/4
f 73/16/4 71/14/4 5/13/4
f 8/19/2 74/20/2 9/21/2
f 73/22/4 72/23/3 71/24/3
f 14/25/2 9/21/2 74/20/2
f 74/26/4 8/27/4 75/28/4
f 12/29/4 75/28/4 8/27/4
f 10/30/1 16/31/1 11/32/1
f 14/33/3 74/34/3 13/35/3
f 75/36/4 76/37/3 74/38/3
f 75/28/4 12/29/4 76/39/4
f 15/40/1 13/41/1 18/42/1
f 77/43/1 11/32/1 16/31/1
f 11/44/4 77/45/4 17/46/4
f 76/47/3 13/35/3 74/34/3
f 18/48/4 76/39/4 12/29/4
f 76/49/1 18/42/1 13/41/1
f 77/50/3 16/51/3 78/52/3
f 79/53/4 17/46/4 77/45/4
f 22/54/2 19/55/2 78/56/2
f 22/57/3 78/52/3 16/51/3
f 79/58/4 77/59/3 78/60/3
f 17/46/4 79/53/4 23/61/4
f 24/62/4 80/63/4 20/64/4
f 20/65/2 81/66/2 21/67/2
f 23/68/2 78/56/2 19/55/2
f 78/69/4 23/61/4 79/53/4
f 81/70/4 20/64/4 80/63/4
f 80/63/4 24/62/4 82/71/4
f 30/72/2 21/67/2 81/66/2
f 26/73/4 83/74/4 28/75/4
f 25/76/1 32/77/1 26/78/1
f 29/79/4 82/71/4 24/62/4
f 80/80/4 82/81/3 81/82/3
f 30/83/3 81/84/3 27/85/3
f 31/86/1 27/87/1 29/88/1
f 84/89/4 28/75/4 83/74/4
f 83/90/1 26/78/1 32/77/1
f 28/75/4 84/89/4 33/91/4
f 82/92/1 29/88/1 27/87/1
f 82/93/3 27/85/3 81/84/3
f 84/94/4 83/95/3 85/96/3
f 83/97/3 32/98/3 85/99/3
f 33/100/2 85/101/2 34/102/2
f 85/103/4 33/91/4 84/89/4
f 35/104/2 34/102/2 85/101/2
f 35/105/3 85/99/3 32/98/3
f 37/106/4 36/107/4 86/108/4
f 36/107/4 38/109/4 87/110/4
f 37/111/2 86/112/2 39/113/2
f 87/110/4 86/108/4 36/107/4
f 88/114/4 87/110/4 38/109/4
f 45/115/2 39/113/2 86/112/2
f 40/116/4 89/117/4 41/118/4
f 43/119/4 90/120/4 40/116/4
f 87/121/4 88/122/3 86/123/3
f 44/124/1 42/125/1 38/126/1
f 88/127/1 38/126/1 42/125/1
f 45/128/3 86/129/3 42/130/3
f 91/131/4 41/118/4 89/117/4
f 89/117/4 40/116/4 90/120/4
f 90/132/1 43/133/1 52/134/1
f 88/135/3 42/130/3 86/129/3
f 41/136/2 91/137/2 46/138/2
f 89/139/4 90/140/3 91/141/3
f 47/142/1 52/134/1 43/133/1
f 90/143/3 52/144/3 91/145/3
f 53/146/2 46/138/2 91/137/2
f 53/147/3 91/145/3 52/144/3
f 49/148/4 48/149/4 92/150/4
f 48/149/4 50/151/4 93/152/4
f 49/153/2 92/154/2 51/155/2
f 93/152/4 92/150/4 48/149/4
f 94/156/4 93/152/4 50/151/4
f 62/157/2 51/155/2 92/154/2
f 54/158/4 95/159/4 55/160/4
f 56/161/4 96/162/4 54/158/4
f 93/163/4 94/164/3 92/165/3
f 57/166/1 58/167/1 50/168/1
f 94/169/1 50/168/1 58/167/1
f 62/170/3 92/171/3 58/172/3
f 97/173/4 55/160/4 95/159/4
f 95/159/4 54/158/4 96/162/4
f 96/174/1 56/175/1 67/176/1
f 94/177/3 58/172/3 92/171/3
f 55/178/2 97/179/2 61/180/2
f 59/181/4 98/182/4 60/183/4
f 63/184/4 99/185/4 59/181/4
f 95/186/4 96/187/3 97/188/3
f 64/189/1 67/176/1 56/175/1
f 96/190/3 67/191/3 97/192/3
f 68/193/2 61/180/2 97/179/2
f 100/194/4 60/183/4 98/182/4
f 98/182/4 59/181/4 99/185/4
f 99/195/1 63/196/1 69/197/1
f 60/198/2 100/199/2 65/200/2
f 68/201/3 97/192/3 67/191/3
f 98/202/4 99/203/3 100/204/3
f 66/205/1 69/197/1 63/196/1
f 99/206/3 69/207/3 100/208/3
f 70/209/2 65/200/2 100/199/2
f 70/210/3 100/208/3 69/207/3
