# Blender v2.82 (sub 7) OBJ File: ''
# www.blender.org
mtllib default.mtl
usemtl default
v -0.349148 -0.413787 0.176286
v -0.349148 -0.422588 0.162228
v -0.345787 -0.421361 0.161568
v -0.345787 -0.412666 0.175464
v -0.344391 -0.418399 0.159973
v -0.344391 -0.409956 0.173478
v -0.345781 -0.415431 0.158376
v -0.345780 -0.407243 0.171485
v -0.349148 -0.414200 0.157714
v -0.349148 -0.406118 0.170657
v -0.349148 -0.406118 0.170657
v -0.349148 -0.414200 0.157714
v -0.352514 -0.415431 0.158376
v -0.352515 -0.407243 0.171485
v -0.353904 -0.418399 0.159973
v -0.353904 -0.409956 0.173478
v -0.352509 -0.421361 0.161568
v -0.352508 -0.412666 0.175464
v -0.349148 -0.429722 0.147115
v -0.345787 -0.428430 0.146595
v -0.344391 -0.425308 0.145336
v -0.345781 -0.422181 0.144076
v -0.349148 -0.420884 0.143554
v -0.349148 -0.420884 0.143554
v -0.352514 -0.422181 0.144076
v -0.353904 -0.425308 0.145336
v -0.352509 -0.428430 0.146595
v -0.349148 -0.434840 0.131935
v -0.345787 -0.433495 0.131573
v -0.344391 -0.430244 0.130699
v -0.345781 -0.426986 0.129825
v -0.349148 -0.425636 0.129462
v -0.349148 -0.425636 0.129462
v -0.352515 -0.426986 0.129825
v -0.353904 -0.430244 0.130699
v -0.352508 -0.433495 0.131573
v -0.349148 -0.437923 0.116696
v -0.345787 -0.436542 0.116511
v -0.344391 -0.433205 0.116062
v -0.345781 -0.429862 0.115614
v -0.349148 -0.428475 0.115427
v -0.349148 -0.428475 0.115427
v -0.352515 -0.429862 0.115614
v -0.353904 -0.433205 0.116062
v -0.352508 -0.436542 0.116511
v -0.349148 -0.438953 0.101426
v -0.345787 -0.437560 0.101426
v -0.344391 -0.434192 0.101426
v -0.345781 -0.430819 0.101426
v -0.349148 -0.429419 0.101426
v -0.349148 -0.429419 0.101426
v -0.352515 -0.430819 0.101426
v -0.353904 -0.434192 0.101426
v -0.352508 -0.437560 0.101426
v -0.345830 -0.398261 0.193864
v -0.349148 -0.398261 0.196648
v -0.344395 -0.398261 0.187085
v -0.345742 -0.398261 0.180250
v -0.349148 -0.398261 0.177384
v -0.352554 -0.398261 0.180250
v -0.349148 -0.398261 0.177384
v -0.353900 -0.398261 0.187085
v -0.352465 -0.398261 0.193864
v -0.349148 -0.397703 0.197746
v -0.344889 -0.397703 0.194428
v -0.344889 -0.396035 0.194428
v -0.349148 -0.396035 0.197746
v -0.353407 -0.397703 0.194428
v -0.349148 -0.397703 0.197746
v -0.349148 -0.396035 0.197746
v -0.353407 -0.396035 0.194428
v -0.354998 -0.397703 0.187092
v -0.354998 -0.396035 0.187092
v -0.353499 -0.397703 0.179692
v -0.353499 -0.396035 0.179692
v -0.349148 -0.397703 0.176285
v -0.349148 -0.396035 0.176285
v -0.344796 -0.397703 0.179692
v -0.349148 -0.397703 0.176285
v -0.349148 -0.396035 0.176285
v -0.344796 -0.396035 0.179692
v -0.343297 -0.397703 0.187092
v -0.343297 -0.396035 0.187092
v -0.349148 -0.398261 0.196648
v -0.345830 -0.398261 0.193864
v -0.344889 -0.397703 0.194428
v -0.349148 -0.397703 0.197746
v -0.344395 -0.398261 0.187085
v -0.343297 -0.397703 0.187092
v -0.345742 -0.398261 0.180250
v -0.344796 -0.397703 0.179692
v -0.349148 -0.398261 0.177384
v -0.349148 -0.397703 0.176285
v -0.352554 -0.398261 0.180250
v -0.353499 -0.397703 0.179692
v -0.353900 -0.398261 0.187085
v -0.354998 -0.397703 0.187092
v -0.352465 -0.398261 0.193864
v -0.353407 -0.397703 0.194428
v -0.349148 -0.413787 0.026565
v -0.345787 -0.412666 0.027387
v -0.345787 -0.421361 0.041283
v -0.349148 -0.422588 0.040623
v -0.344391 -0.409956 0.029373
v -0.344391 -0.418399 0.042878
v -0.345780 -0.407243 0.031366
v -0.345781 -0.415431 0.044475
v -0.349148 -0.406118 0.032195
v -0.349148 -0.414200 0.045138
v -0.349148 -0.406118 0.032195
v -0.352515 -0.407243 0.031366
v -0.352514 -0.415431 0.044475
v -0.349148 -0.414200 0.045138
v -0.353904 -0.409956 0.029373
v -0.353904 -0.418399 0.042878
v -0.352508 -0.412666 0.027387
v -0.352509 -0.421361 0.041283
v -0.345787 -0.428430 0.056257
v -0.349148 -0.429722 0.055736
v -0.344391 -0.425308 0.057515
v -0.345781 -0.422181 0.058775
v -0.349148 -0.420884 0.059298
v -0.352514 -0.422181 0.058775
v -0.349148 -0.420884 0.059298
v -0.353904 -0.425308 0.057515
v -0.352509 -0.428430 0.056257
v -0.345787 -0.433495 0.071279
v -0.349148 -0.434840 0.070917
v -0.344391 -0.430244 0.072152
v -0.345781 -0.426986 0.073026
v -0.349148 -0.425636 0.073389
v -0.352515 -0.426986 0.073026
v -0.349148 -0.425636 0.073389
v -0.353904 -0.430244 0.072152
v -0.352508 -0.433495 0.071279
v -0.345787 -0.436542 0.086341
v -0.349148 -0.437923 0.086155
v -0.344391 -0.433205 0.086789
v -0.345781 -0.429862 0.087237
v -0.349148 -0.428475 0.087424
v -0.352515 -0.429862 0.087237
v -0.349148 -0.428475 0.087424
v -0.353904 -0.433205 0.086789
v -0.352508 -0.436542 0.086341
v -0.349148 -0.398261 0.006203
v -0.345830 -0.398261 0.008988
v -0.344395 -0.398261 0.015767
v -0.345742 -0.398261 0.022602
v -0.349148 -0.398261 0.025468
v -0.349148 -0.398261 0.025468
v -0.352554 -0.398261 0.022602
v -0.353900 -0.398261 0.015767
v -0.352465 -0.398261 0.008988
v -0.349148 -0.397703 0.005106
v -0.349148 -0.396035 0.005106
v -0.344889 -0.396035 0.008423
v -0.344889 -0.397703 0.008423
v -0.353407 -0.397703 0.008423
v -0.353407 -0.396035 0.008423
v -0.349148 -0.396035 0.005106
v -0.349148 -0.397703 0.005106
v -0.354998 -0.397703 0.015759
v -0.354998 -0.396035 0.015759
v -0.353499 -0.397703 0.023159
v -0.353499 -0.396035 0.023159
v -0.349148 -0.397703 0.026566
v -0.349148 -0.396035 0.026566
v -0.344796 -0.397703 0.023159
v -0.344796 -0.396035 0.023159
v -0.349148 -0.396035 0.026566
v -0.349148 -0.397703 0.026566
v -0.343297 -0.397703 0.015759
v -0.343297 -0.396035 0.015759
v -0.349148 -0.398261 0.006203
v -0.349148 -0.397703 0.005106
v -0.344889 -0.397703 0.008423
v -0.345830 -0.398261 0.008988
v -0.343297 -0.397703 0.015759
v -0.344395 -0.398261 0.015767
v -0.344796 -0.397703 0.023159
v -0.345742 -0.398261 0.022602
v -0.349148 -0.397703 0.026566
v -0.349148 -0.398261 0.025468
v -0.353499 -0.397703 0.023159
v -0.352554 -0.398261 0.022602
v -0.354998 -0.397703 0.015759
v -0.353900 -0.398261 0.015767
v -0.353407 -0.397703 0.008423
v -0.352465 -0.398261 0.008988
v -0.352465 -0.398261 0.008988
v -0.353407 -0.397703 0.008423
vt 0.586530 0.272258
vt 0.586576 0.268381
vt 0.569167 0.268378
vt 0.569174 0.272189
vt 0.586425 0.276176
vt 0.569192 0.276062
vt 0.586299 0.280178
vt 0.569209 0.280028
vt 0.586067 0.284211
vt 0.569209 0.284056
vt 0.586287 0.256593
vt 0.586059 0.252572
vt 0.569210 0.252704
vt 0.569207 0.256731
vt 0.586413 0.260586
vt 0.569192 0.260695
vt 0.586525 0.264504
vt 0.569175 0.264567
vt 0.551715 0.268372
vt 0.551716 0.272205
vt 0.551726 0.276103
vt 0.551746 0.280100
vt 0.551776 0.284168
vt 0.551780 0.252574
vt 0.551746 0.256643
vt 0.551728 0.260640
vt 0.551719 0.264539
vt 0.534872 0.268363
vt 0.534875 0.272234
vt 0.534891 0.276178
vt 0.534924 0.280234
vt 0.534975 0.284373
vt 0.534978 0.252351
vt 0.534923 0.256490
vt 0.534892 0.260548
vt 0.534878 0.264493
vt 0.518335 0.268354
vt 0.518340 0.272283
vt 0.518360 0.276296
vt 0.518399 0.280434
vt 0.518461 0.284668
vt 0.518463 0.252036
vt 0.518397 0.256271
vt 0.518361 0.260411
vt 0.518343 0.264424
vt 0.501829 0.268344
vt 0.501829 0.272330
vt 0.501829 0.276406
vt 0.501829 0.280629
vt 0.501829 0.284980
vt 0.501829 0.251703
vt 0.501829 0.256055
vt 0.501829 0.260279
vt 0.501829 0.264357
vt 0.614213 0.268341
vt 0.611819 0.272416
vt 0.605996 0.277212
vt 0.600064 0.282016
vt 0.597287 0.286056
vt 0.597227 0.250694
vt 0.599973 0.254720
vt 0.605940 0.259503
vt 0.611806 0.264277
vt 0.570005 0.289770
vt 0.570005 0.287943
vt 0.564089 0.287943
vt 0.564089 0.289770
vt 0.575921 0.289770
vt 0.575921 0.287943
vt 0.570005 0.287943
vt 0.570005 0.289770
vt 0.584149 0.289769
vt 0.584148 0.287942
vt 0.592424 0.289768
vt 0.592423 0.287941
vt 0.598480 0.289767
vt 0.598480 0.287940
vt 0.547585 0.289768
vt 0.547585 0.287941
vt 0.541528 0.287940
vt 0.541528 0.289768
vt 0.555861 0.289770
vt 0.555861 0.287942
vt 0.608087 0.302751
vt 0.608086 0.301387
vt 0.604317 0.298499
vt 0.603176 0.299240
vt 0.602533 0.291126
vt 0.601174 0.291131
vt 0.604249 0.283694
vt 0.603104 0.282957
vt 0.608117 0.280711
vt 0.608116 0.279349
vt 0.611982 0.283683
vt 0.613128 0.282952
vt 0.613670 0.291118
vt 0.615029 0.291131
vt 0.611859 0.298489
vt 0.612998 0.299235
vt 0.434481 0.268380
vt 0.417067 0.268383
vt 0.417113 0.272261
vt 0.434474 0.272192
vt 0.417219 0.276180
vt 0.434456 0.276066
vt 0.417344 0.280183
vt 0.434440 0.280032
vt 0.417577 0.284217
vt 0.434440 0.284061
vt 0.434437 0.252702
vt 0.417584 0.252570
vt 0.417355 0.256592
vt 0.434440 0.256730
vt 0.417230 0.260586
vt 0.434456 0.260695
vt 0.417118 0.264505
vt 0.434472 0.264568
vt 0.451936 0.268373
vt 0.451935 0.272206
vt 0.451926 0.276106
vt 0.451906 0.280103
vt 0.451876 0.284173
vt 0.451872 0.252572
vt 0.451906 0.256641
vt 0.451923 0.260639
vt 0.451933 0.264539
vt 0.468783 0.268364
vt 0.468780 0.272235
vt 0.468764 0.276180
vt 0.468731 0.280237
vt 0.468680 0.284376
vt 0.468676 0.252349
vt 0.468731 0.256489
vt 0.468762 0.260547
vt 0.468777 0.264493
vt 0.485322 0.268354
vt 0.485318 0.272284
vt 0.485298 0.276296
vt 0.485259 0.280435
vt 0.485197 0.284669
vt 0.485194 0.252035
vt 0.485260 0.256270
vt 0.485296 0.260410
vt 0.485314 0.264424
vt 0.389423 0.268344
vt 0.391817 0.272420
vt 0.397642 0.277217
vt 0.403576 0.282022
vt 0.406353 0.286063
vt 0.406413 0.250691
vt 0.403666 0.254719
vt 0.397698 0.259504
vt 0.391830 0.264278
vt 0.547364 0.290674
vt 0.541447 0.290674
vt 0.541447 0.292501
vt 0.547364 0.292501
vt 0.598399 0.290674
vt 0.592482 0.290674
vt 0.592482 0.292501
vt 0.598399 0.292501
vt 0.584255 0.290674
vt 0.584255 0.292501
vt 0.575980 0.290674
vt 0.575980 0.292501
vt 0.569923 0.290674
vt 0.569923 0.292501
vt 0.569923 0.290674
vt 0.563867 0.290674
vt 0.563867 0.292501
vt 0.569923 0.292501
vt 0.555591 0.290674
vt 0.555591 0.292501
vt 0.619492 0.283479
vt 0.623260 0.280591
vt 0.623262 0.279227
vt 0.618351 0.282738
vt 0.617708 0.290853
vt 0.616349 0.290848
vt 0.619424 0.298285
vt 0.618280 0.299021
vt 0.623293 0.301268
vt 0.623291 0.302630
vt 0.627156 0.298295
vt 0.628303 0.299027
vt 0.628845 0.290861
vt 0.630204 0.290848
vt 0.627033 0.283489
vt 0.628172 0.282744
vt 0.627033 0.283489
vt 0.628172 0.282744
vn 0.6119 -0.6442 0.4589
vn -0.1496 -0.8064 0.5722
vn -0.0009 -0.8776 0.4793
vn 0.7046 -0.6257 0.3348
vn 0.9892 -0.1190 0.0859
vn 1.0000 -0.0088 -0.0044
vn 0.8303 0.4405 -0.3414
vn 0.7107 0.6150 -0.3415
vn 0.4185 0.7098 -0.5666
vn 0.3834 0.8195 -0.4259
vn -0.6288 0.6081 -0.4846
vn -0.3828 0.7178 -0.5816
vn -0.3830 0.8022 -0.4580
vn -0.7087 0.6221 -0.3328
vn -0.9939 0.0863 -0.0680
vn -1.0000 0.0010 0.0087
vn -0.8052 -0.4807 0.3473
vn -0.7060 -0.6187 0.3447
vn 0.0030 -0.9270 0.3749
vn 0.7077 -0.6571 0.2595
vn 1.0000 -0.0040 -0.0070
vn 0.7074 0.6532 -0.2702
vn 0.3834 0.8627 -0.3297
vn -0.3835 0.8492 -0.3629
vn -0.7122 0.6527 -0.2583
vn -0.9999 -0.0039 0.0102
vn -0.7035 -0.6566 0.2719
vn 0.0021 -0.9655 0.2603
vn 0.7070 -0.6845 0.1780
vn 1.0000 -0.0045 -0.0078
vn 0.7083 0.6799 -0.1896
vn 0.3835 0.8966 -0.2216
vn -0.3835 0.8864 -0.2593
vn -0.7119 0.6796 -0.1772
vn -0.9999 -0.0046 0.0102
vn -0.7039 -0.6841 0.1910
vn 0.0011 -0.9910 0.1336
vn 0.7061 -0.7026 0.0879
vn 1.0000 -0.0050 -0.0085
vn 0.7094 0.6976 -0.1004
vn 0.3838 0.9177 -0.1030
vn -0.3836 0.9122 -0.1438
vn -0.7114 0.6973 -0.0879
vn -0.9999 -0.0051 0.0099
vn -0.7046 -0.7023 0.1015
vn 0.1358 -0.9907 -0.0000
vn 0.7957 -0.6057 -0.0000
vn 0.9911 0.1328 -0.0000
vn 0.6060 0.7955 -0.0000
vn 0.3839 0.9234 -0.0000
vn -0.3839 0.9234 -0.0000
vn -0.8000 0.5999 -0.0000
vn -0.9901 -0.1402 -0.0000
vn -0.6034 -0.7975 -0.0000
vn 0.1296 -0.7859 0.6046
vn 0.8245 -0.4419 0.3534
vn 0.9969 0.0543 -0.0573
vn 0.7320 0.4625 -0.5002
vn 0.5386 0.5480 -0.6400
vn -0.4572 0.6016 -0.6550
vn -0.8682 0.3546 -0.3471
vn -0.9898 -0.1114 0.0886
vn -0.6611 -0.5928 0.4600
vn 0.6146 0.0000 0.7889
vn 0.8102 -0.0000 0.5862
vn 0.9240 0.0000 0.3823
vn -0.8102 -0.0001 0.5862
vn -0.9241 -0.0001 0.3822
vn -0.6146 0.0000 0.7889
vn -0.9971 0.0000 0.0760
vn -0.9980 -0.0000 -0.0634
vn -0.9273 0.0000 -0.3743
vn -0.8124 0.0000 -0.5831
vn -0.6165 0.0000 -0.7873
vn 0.8124 0.0000 -0.5831
vn 0.9273 -0.0000 -0.3743
vn 0.6164 0.0000 -0.7874
vn 0.9980 0.0000 -0.0634
vn 0.9971 0.0000 0.0761
vn 0.1008 -0.8980 0.4284
vn -0.1295 -0.8959 0.4251
vn 0.3873 -0.8812 0.2710
vn 0.4175 -0.8918 0.1745
vn 0.4567 -0.8888 0.0366
vn 0.4573 -0.8889 -0.0266
vn 0.4264 -0.8910 -0.1559
vn 0.3905 -0.8818 -0.2644
vn 0.1297 -0.8959 -0.4248
vn -0.1013 -0.8980 -0.4281
vn -0.3883 -0.8812 -0.2697
vn -0.4187 -0.8919 -0.1708
vn -0.4575 -0.8887 -0.0307
vn -0.4566 -0.8891 0.0324
vn -0.4253 -0.8909 0.1597
vn -0.3895 -0.8819 0.2657
vn -0.0009 -0.8776 -0.4793
vn -0.1497 -0.8064 -0.5722
vn 0.6119 -0.6442 -0.4589
vn 0.7046 -0.6257 -0.3348
vn 0.9892 -0.1190 -0.0859
vn 1.0000 -0.0089 0.0044
vn 0.8303 0.4405 0.3414
vn 0.7108 0.6150 0.3414
vn 0.4186 0.7098 0.5665
vn 0.3835 0.8195 0.4259
vn -0.3833 0.8021 0.4579
vn -0.3830 0.7177 0.5816
vn -0.6289 0.6081 0.4845
vn -0.7087 0.6221 0.3328
vn -0.9939 0.0863 0.0680
vn -1.0000 0.0010 -0.0087
vn -0.8052 -0.4806 -0.3473
vn -0.7060 -0.6187 -0.3447
vn 0.0030 -0.9270 -0.3749
vn 0.7077 -0.6571 -0.2595
vn 1.0000 -0.0040 0.0070
vn 0.7074 0.6531 0.2702
vn 0.3835 0.8627 0.3297
vn -0.3836 0.8492 0.3629
vn -0.7122 0.6527 0.2583
vn -0.9999 -0.0039 -0.0102
vn -0.7035 -0.6567 -0.2719
vn 0.0021 -0.9655 -0.2603
vn 0.7070 -0.6845 -0.1780
vn 1.0000 -0.0045 0.0078
vn 0.7083 0.6799 0.1896
vn 0.3835 0.8966 0.2217
vn -0.3835 0.8864 0.2593
vn -0.7119 0.6795 0.1773
vn -0.9999 -0.0047 -0.0102
vn -0.7039 -0.6841 -0.1910
vn 0.0011 -0.9910 -0.1336
vn 0.7061 -0.7026 -0.0880
vn 1.0000 -0.0050 0.0085
vn 0.7094 0.6976 0.1004
vn 0.3838 0.9177 0.1030
vn -0.3836 0.9122 0.1438
vn -0.7114 0.6973 0.0879
vn -0.9999 -0.0051 -0.0099
vn -0.7046 -0.7023 -0.1015
vn 0.1296 -0.7859 -0.6046
vn 0.8245 -0.4419 -0.3534
vn 0.9969 0.0544 0.0573
vn 0.7321 0.4625 0.5002
vn 0.5386 0.5480 0.6400
vn -0.4573 0.6015 0.6550
vn -0.8682 0.3546 0.3471
vn -0.9898 -0.1114 -0.0886
vn -0.6611 -0.5927 -0.4600
vn 0.8101 0.0000 -0.5863
vn 0.6144 0.0000 -0.7890
vn 0.6145 0.0000 -0.7890
vn 0.9240 0.0000 -0.3823
vn -0.6145 0.0000 -0.7890
vn -0.9241 0.0000 -0.3822
vn -0.8101 0.0000 -0.5863
vn -0.6145 0.0000 -0.7889
vn -0.9980 0.0000 0.0634
vn -0.9971 0.0000 -0.0760
vn -0.8124 0.0000 0.5831
vn -0.9273 0.0000 0.3743
vn -0.6165 0.0000 0.7873
vn 0.6164 0.0000 0.7874
vn 0.9273 0.0000 0.3743
vn 0.8124 0.0000 0.5832
vn 0.9971 0.0000 -0.0761
vn 0.9980 0.0000 0.0634
vn 0.3873 -0.8813 -0.2709
vn -0.1294 -0.8958 -0.4251
vn 0.1008 -0.8979 -0.4285
vn 0.4174 -0.8918 -0.1744
vn 0.4567 -0.8889 -0.0366
vn 0.4573 -0.8889 0.0266
vn 0.4264 -0.8910 0.1559
vn 0.3906 -0.8817 0.2645
vn 0.1297 -0.8958 0.4251
vn -0.1014 -0.8979 0.4284
vn -0.3884 -0.8811 0.2698
vn -0.4188 -0.8919 0.1708
vn -0.4575 -0.8887 0.0307
vn -0.4566 -0.8891 -0.0324
vn -0.4564 -0.8844 -0.0978
vn -0.4619 -0.8812 -0.1002
vn -0.3044 -0.8809 -0.3625
vn -0.3195 -0.8605 -0.3967
f 4/1/1 1/2/2 2/3/3
f 2/3/3 3/4/4 4/1/1
f 6/5/5 4/1/1 3/4/4
f 3/4/4 5/6/6 6/5/5
f 8/7/7 6/5/5 5/6/6
f 5/6/6 7/8/8 8/7/7
f 10/9/9 8/7/7 7/8/8
f 7/8/8 9/10/10 10/9/9
f 14/11/11 11/12/12 12/13/13
f 12/13/13 13/14/14 14/11/11
f 16/15/15 14/11/11 13/14/14
f 13/14/14 15/16/16 16/15/15
f 18/17/17 16/15/15 15/16/16
f 15/16/16 17/18/18 18/17/17
f 1/2/2 18/17/17 17/18/18
f 17/18/18 2/3/3 1/2/2
f 3/4/4 2/3/3 19/19/19
f 19/19/19 20/20/20 3/4/4
f 5/6/6 3/4/4 20/20/20
f 20/20/20 21/21/21 5/6/6
f 7/8/8 5/6/6 21/21/21
f 21/21/21 22/22/22 7/8/8
f 9/10/10 7/8/8 22/22/22
f 22/22/22 23/23/23 9/10/10
f 13/14/14 12/13/13 24/24/24
f 24/24/24 25/25/25 13/14/14
f 15/16/16 13/14/14 25/25/25
f 25/25/25 26/26/26 15/16/16
f 17/18/18 15/16/16 26/26/26
f 26/26/26 27/27/27 17/18/18
f 2/3/3 17/18/18 27/27/27
f 27/27/27 19/19/19 2/3/3
f 20/20/20 19/19/19 28/28/28
f 28/28/28 29/29/29 20/20/20
f 21/21/21 20/20/20 29/29/29
f 29/29/29 30/30/30 21/21/21
f 22/22/22 21/21/21 30/30/30
f 30/30/30 31/31/31 22/22/22
f 23/23/23 22/22/22 31/31/31
f 31/31/31 32/32/32 23/23/23
f 25/25/25 24/24/24 33/33/33
f 33/33/33 34/34/34 25/25/25
f 26/26/26 25/25/25 34/34/34
f 34/34/34 35/35/35 26/26/26
f 27/27/27 26/26/26 35/35/35
f 35/35/35 36/36/36 27/27/27
f 19/19/19 27/27/27 36/36/36
f 36/36/36 28/28/28 19/19/19
f 29/29/29 28/28/28 37/37/37
f 37/37/37 38/38/38 29/29/29
f 30/30/30 29/29/29 38/38/38
f 38/38/38 39/39/39 30/30/30
f 31/31/31 30/30/30 39/39/39
f 39/39/39 40/40/40 31/31/31
f 32/32/32 31/31/31 40/40/40
f 40/40/40 41/41/41 32/32/32
f 34/34/34 33/33/33 42/42/42
f 42/42/42 43/43/43 34/34/34
f 35/35/35 34/34/34 43/43/43
f 43/43/43 44/44/44 35/35/35
f 36/36/36 35/35/35 44/44/44
f 44/44/44 45/45/45 36/36/36
f 28/28/28 36/36/36 45/45/45
f 45/45/45 37/37/37 28/28/28
f 38/38/38 37/37/37 46/46/46
f 46/46/46 47/47/47 38/38/38
f 39/39/39 38/38/38 47/47/47
f 47/47/47 48/48/48 39/39/39
f 40/40/40 39/39/39 48/48/48
f 48/48/48 49/49/49 40/40/40
f 41/41/41 40/40/40 49/49/49
f 49/49/49 50/50/50 41/41/41
f 43/43/43 42/42/42 51/51/51
f 51/51/51 52/52/52 43/43/43
f 44/44/44 43/43/43 52/52/52
f 52/52/52 53/53/53 44/44/44
f 45/45/45 44/44/44 53/53/53
f 53/53/53 54/54/54 45/45/45
f 37/37/37 45/45/45 54/54/54
f 54/54/54 46/46/46 37/37/37
f 56/55/55 1/2/2 4/1/1
f 4/1/1 55/56/56 56/55/55
f 55/56/56 4/1/1 6/5/5
f 6/5/5 57/57/57 55/56/56
f 57/57/57 6/5/5 8/7/7
f 8/7/7 58/58/58 57/57/57
f 58/58/58 8/7/7 10/9/9
f 10/9/9 59/59/59 58/58/58
f 61/60/60 11/12/12 14/11/11
f 14/11/11 60/61/61 61/60/60
f 60/61/61 14/11/11 16/15/15
f 16/15/15 62/62/62 60/61/61
f 62/62/62 16/15/15 18/17/17
f 18/17/17 63/63/63 62/62/62
f 63/63/63 18/17/17 1/2/2
f 1/2/2 56/55/55 63/63/63
f 67/64/64 64/65/64 65/66/65
f 65/66/65 66/67/66 67/64/64
f 71/68/67 68/69/68 69/70/69
f 69/70/69 70/71/69 71/68/67
f 73/72/70 72/73/71 68/69/68
f 68/69/68 71/68/67 73/72/70
f 75/74/72 74/75/73 72/73/71
f 72/73/71 73/72/70 75/74/72
f 77/76/74 76/77/74 74/75/73
f 74/75/73 75/74/72 77/76/74
f 81/78/75 78/79/76 79/80/77
f 79/80/77 80/81/77 81/78/75
f 83/82/78 82/83/79 78/79/76
f 78/79/76 81/78/75 83/82/78
f 66/67/66 65/66/65 82/83/79
f 82/83/79 83/82/78 66/67/66
f 87/84/80 84/85/81 85/86/82
f 85/86/82 86/87/83 87/84/80
f 86/87/83 85/86/82 88/88/84
f 88/88/84 89/89/85 86/87/83
f 89/89/85 88/88/84 90/90/86
f 90/90/86 91/91/87 89/89/85
f 91/91/87 90/90/86 92/92/88
f 92/92/88 93/93/89 91/91/87
f 93/93/89 92/92/88 94/94/90
f 94/94/90 95/95/91 93/93/89
f 95/95/91 94/94/90 96/96/92
f 96/96/92 97/97/93 95/95/91
f 97/97/93 96/96/92 98/98/94
f 98/98/94 99/99/95 97/97/93
f 99/99/95 98/98/94 84/85/81
f 84/85/81 87/84/80 99/99/95
f 103/100/96 100/101/97 101/102/98
f 101/102/98 102/103/99 103/100/96
f 102/103/99 101/102/98 104/104/100
f 104/104/100 105/105/101 102/103/99
f 105/105/101 104/104/100 106/106/102
f 106/106/102 107/107/103 105/105/101
f 107/107/103 106/106/102 108/108/104
f 108/108/104 109/109/105 107/107/103
f 113/110/106 110/111/107 111/112/108
f 111/112/108 112/113/109 113/110/106
f 112/113/109 111/112/108 114/114/110
f 114/114/110 115/115/111 112/113/109
f 115/115/111 114/114/110 116/116/112
f 116/116/112 117/117/113 115/115/111
f 117/117/113 116/116/112 100/101/97
f 100/101/97 103/100/96 117/117/113
f 119/118/114 103/100/96 102/103/99
f 102/103/99 118/119/115 119/118/114
f 118/119/115 102/103/99 105/105/101
f 105/105/101 120/120/116 118/119/115
f 120/120/116 105/105/101 107/107/103
f 107/107/103 121/121/117 120/120/116
f 121/121/117 107/107/103 109/109/105
f 109/109/105 122/122/118 121/121/117
f 124/123/119 113/110/106 112/113/109
f 112/113/109 123/124/120 124/123/119
f 123/124/120 112/113/109 115/115/111
f 115/115/111 125/125/121 123/124/120
f 125/125/121 115/115/111 117/117/113
f 117/117/113 126/126/122 125/125/121
f 126/126/122 117/117/113 103/100/96
f 103/100/96 119/118/114 126/126/122
f 128/127/123 119/118/114 118/119/115
f 118/119/115 127/128/124 128/127/123
f 127/128/124 118/119/115 120/120/116
f 120/120/116 129/129/125 127/128/124
f 129/129/125 120/120/116 121/121/117
f 121/121/117 130/130/126 129/129/125
f 130/130/126 121/121/117 122/122/118
f 122/122/118 131/131/127 130/130/126
f 133/132/128 124/123/119 123/124/120
f 123/124/120 132/133/129 133/132/128
f 132/133/129 123/124/120 125/125/121
f 125/125/121 134/134/130 132/133/129
f 134/134/130 125/125/121 126/126/122
f 126/126/122 135/135/131 134/134/130
f 135/135/131 126/126/122 119/118/114
f 119/118/114 128/127/123 135/135/131
f 137/136/132 128/127/123 127/128/124
f 127/128/124 136/137/133 137/136/132
f 136/137/133 127/128/124 129/129/125
f 129/129/125 138/138/134 136/137/133
f 138/138/134 129/129/125 130/130/126
f 130/130/126 139/139/135 138/138/134
f 139/139/135 130/130/126 131/131/127
f 131/131/127 140/140/136 139/139/135
f 142/141/137 133/132/128 132/133/129
f 132/133/129 141/142/138 142/141/137
f 141/142/138 132/133/129 134/134/130
f 134/134/130 143/143/139 141/142/138
f 143/143/139 134/134/130 135/135/131
f 135/135/131 144/144/140 143/143/139
f 144/144/140 135/135/131 128/127/123
f 128/127/123 137/136/132 144/144/140
f 46/46/46 137/136/132 136/137/133
f 136/137/133 47/47/47 46/46/46
f 47/47/47 136/137/133 138/138/134
f 138/138/134 48/48/48 47/47/47
f 48/48/48 138/138/134 139/139/135
f 139/139/135 49/49/49 48/48/48
f 49/49/49 139/139/135 140/140/136
f 140/140/136 50/50/50 49/49/49
f 51/51/51 142/141/137 141/142/138
f 141/142/138 52/52/52 51/51/51
f 52/52/52 141/142/138 143/143/139
f 143/143/139 53/53/53 52/52/52
f 53/53/53 143/143/139 144/144/140
f 144/144/140 54/54/54 53/53/53
f 54/54/54 144/144/140 137/136/132
f 137/136/132 46/46/46 54/54/54
f 101/102/98 100/101/97 145/145/141
f 145/145/141 146/146/142 101/102/98
f 104/104/100 101/102/98 146/146/142
f 146/146/142 147/147/143 104/104/100
f 106/106/102 104/104/100 147/147/143
f 147/147/143 148/148/144 106/106/102
f 108/108/104 106/106/102 148/148/144
f 148/148/144 149/149/145 108/108/104
f 111/112/108 110/111/107 150/150/146
f 150/150/146 151/151/147 111/112/108
f 114/114/110 111/112/108 151/151/147
f 151/151/147 152/152/148 114/114/110
f 116/116/112 114/114/110 152/152/148
f 152/152/148 153/153/149 116/116/112
f 100/101/97 116/116/112 153/153/149
f 153/153/149 145/145/141 100/101/97
f 157/154/150 154/155/151 155/156/152
f 155/156/152 156/157/153 157/154/150
f 161/158/154 158/159/155 159/160/156
f 159/160/156 160/161/157 161/158/154
f 158/159/155 162/162/158 163/163/159
f 163/163/159 159/160/156 158/159/155
f 162/162/158 164/164/160 165/165/161
f 165/165/161 163/163/159 162/162/158
f 164/164/160 166/166/162 167/167/162
f 167/167/162 165/165/161 164/164/160
f 171/168/163 168/169/164 169/170/165
f 169/170/165 170/171/163 171/168/163
f 168/169/164 172/172/166 173/173/167
f 173/173/167 169/170/165 168/169/164
f 172/172/166 157/154/150 156/157/153
f 156/157/153 173/173/167 172/172/166
f 177/174/168 174/175/169 175/176/170
f 175/176/170 176/177/171 177/174/168
f 179/178/172 177/174/168 176/177/171
f 176/177/171 178/179/173 179/178/172
f 181/180/174 179/178/172 178/179/173
f 178/179/173 180/181/175 181/180/174
f 183/182/176 181/180/174 180/181/175
f 180/181/175 182/183/177 183/182/176
f 185/184/178 183/182/176 182/183/177
f 182/183/177 184/185/179 185/184/178
f 187/186/180 185/184/178 184/185/179
f 184/185/179 186/187/181 187/186/180
f 189/188/182 187/186/180 186/187/181
f 186/187/181 188/189/183 189/188/182
f 174/175/169 190/190/184 191/191/185
f 191/191/185 175/176/170 174/175/169
