# Blender v2.82 (sub 7) OBJ File: ''
# www.blender.org
mtllib default.mtl
usemtl default
v 0.402365 0.393143 -0.696332
v 0.402365 0.393143 -0.641948
v 0.402365 -0.361698 -0.641948
v 0.402365 -0.361698 -0.696332
v 0.441068 -0.395888 -0.641948
v 0.441068 -0.395888 0.280953
v -0.441068 -0.395888 0.280953
v -0.441068 -0.395888 -0.641948
v 0.441068 0.429614 0.280953
v 0.441068 -0.364653 0.280953
v 0.441068 -0.364653 -0.641948
v 0.441068 0.429614 -0.641948
v 0.450412 -0.398183 0.331703
v 0.450412 -0.398183 0.280953
v 0.450412 -0.364653 0.280953
v 0.450412 -0.364653 0.331703
v 0.450412 0.431909 0.331703
v 0.450412 0.431909 0.280953
v 0.441068 -0.395888 -0.641948
v 0.441068 -0.395888 0.280953
v 0.441068 0.429614 0.280953
v 0.450412 0.431909 0.280953
v 0.450412 -0.364653 0.280953
v 0.441068 -0.364653 0.280953
v 0.443368 -0.405227 0.280953
v -0.443368 -0.405227 0.280953
v -0.441068 -0.395888 0.280953
v 0.441068 -0.395888 0.280953
v -0.402365 -0.361698 -0.641948
v -0.402365 0.393143 -0.641948
v -0.402365 0.393143 -0.696332
v -0.402365 -0.361698 -0.696332
v -0.402365 0.393143 -0.641948
v 0.402365 0.393143 -0.641948
v 0.402365 0.393143 -0.696332
v -0.402365 0.393143 -0.696332
v -0.441068 -0.364653 -0.641948
v -0.441068 -0.364653 0.280953
v -0.441068 0.429614 0.280953
v -0.441068 0.429614 -0.641948
v -0.450412 -0.364653 0.280953
v -0.450412 -0.398183 0.280953
v -0.450412 -0.398183 0.331703
v -0.450412 -0.364653 0.331703
v -0.443368 -0.405227 0.280953
v 0.443368 -0.405227 0.280953
v 0.443368 -0.405227 0.331703
v -0.443368 -0.405227 0.331703
v -0.450412 0.431909 0.331703
v -0.450412 0.431909 0.280953
v -0.441068 -0.395888 -0.641948
v -0.441068 -0.395888 0.280953
v 0.402365 -0.361698 -0.641948
v -0.402365 -0.361698 -0.641948
v -0.402365 -0.361698 -0.696332
v 0.402365 -0.361698 -0.696332
v 0.441068 0.429614 -0.641948
v -0.441068 0.429614 -0.641948
v -0.441068 0.429614 0.280953
v 0.441068 0.429614 0.280953
v 0.448651 -0.403466 0.331703
v -0.448651 -0.403466 0.331703
v -0.443368 -0.405227 0.331703
v 0.443368 -0.405227 0.331703
v 0.443368 0.438953 0.280953
v -0.443368 0.438953 0.280953
v -0.443368 0.438953 0.331703
v 0.443368 0.438953 0.331703
v 0.441068 0.429614 -0.641948
v 0.441068 -0.364653 -0.641948
v 0.402365 -0.361698 -0.641948
v 0.402365 0.393143 -0.641948
v 0.441068 -0.395888 -0.641948
v -0.441068 -0.395888 -0.641948
v -0.402365 -0.361698 -0.641948
v -0.441068 -0.364653 -0.641948
v -0.441068 0.429614 -0.641948
v -0.402365 0.393143 -0.641948
v -0.448651 -0.403466 0.331703
v -0.448651 -0.403466 0.280953
v -0.448651 -0.403466 0.331703
v -0.448651 -0.403466 0.280953
v -0.448651 -0.403466 0.280953
v -0.450412 -0.398183 0.280953
v 0.448651 -0.403466 0.280953
v 0.448651 -0.403466 0.331703
v 0.448651 -0.403466 0.280953
v 0.448651 -0.403466 0.331703
v 0.450412 -0.398183 0.280953
v 0.448651 -0.403466 0.280953
v -0.448651 0.437192 0.331703
v -0.448651 0.437192 0.280953
v -0.448651 0.437192 0.331703
v -0.448651 0.437192 0.280953
v 0.448651 0.437192 0.280953
v 0.448651 0.437192 0.331703
v 0.448651 0.437192 0.280953
v 0.448651 0.437192 0.331703
v 0.443368 0.438953 0.280953
v 0.448651 0.437192 0.280953
v -0.441068 0.429614 0.280953
v -0.450412 0.431909 0.280953
v -0.448651 0.437192 0.280953
v 0.448651 0.437192 0.331703
v -0.448651 0.437192 0.331703
v -0.450412 0.431909 0.331703
v 0.450412 0.431909 0.331703
v 0.443368 0.438953 0.331703
v -0.443368 0.438953 0.331703
v 0.450412 -0.364653 0.331703
v -0.450412 -0.364653 0.331703
v -0.450412 -0.398183 0.331703
v 0.450412 -0.398183 0.331703
v 0.450412 -0.364653 0.331703
v 0.450412 0.431909 0.331703
v 0.410816 0.274160 0.331703
v 0.410816 -0.329128 0.331703
v -0.407080 0.274160 0.331703
v 0.410816 0.274160 0.331703
v -0.450412 0.431909 0.331703
v -0.450412 -0.364653 0.331703
v -0.407080 -0.329128 0.331703
v -0.407080 0.274160 0.331703
v 0.410816 -0.329128 0.331703
v -0.450412 -0.364653 0.280953
v -0.441068 -0.364653 0.280953
v -0.443368 0.438953 0.280953
vt 0.009430 0.250832
vt 0.296036 0.250817
vt 0.296037 0.270064
vt 0.009430 0.270078
vt 0.321252 0.654089
vt 0.009058 0.653688
vt 0.009478 0.327067
vt 0.321671 0.327468
vt 0.627057 0.327135
vt 0.627509 0.653894
vt 0.346293 0.654283
vt 0.345841 0.327524
vt 0.335234 0.654298
vt 0.334782 0.327539
vt 0.658632 0.361026
vt 0.658624 0.661676
vt 0.655318 0.662490
vt 0.655326 0.361028
vt 0.658632 0.349968
vt 0.657818 0.346663
vt 0.971548 0.346499
vt 0.970734 0.349806
vt 0.009437 0.246582
vt 0.009430 0.227335
vt 0.296037 0.227215
vt 0.296046 0.246461
vt 0.294264 0.297805
vt 0.294228 0.317052
vt 0.009430 0.317052
vt 0.009466 0.297805
vt 0.626362 0.993816
vt 0.345146 0.993816
vt 0.345146 0.667056
vt 0.626362 0.667056
vt 0.334088 0.667056
vt 0.334088 0.993816
vt 0.009430 0.293570
vt 0.009430 0.274323
vt 0.294229 0.274314
vt 0.294230 0.293561
vt 0.321252 0.666861
vt 0.321252 0.993482
vt 0.009058 0.993482
vt 0.009058 0.666861
vt 0.658643 0.989968
vt 0.656773 0.989345
vt 0.974335 0.989345
vt 0.972465 0.989968
vt 0.634851 0.305207
vt 0.647599 0.318904
vt 0.347224 0.318904
vt 0.348085 0.305207
vt 0.335985 0.318904
vt 0.335985 0.006709
vt 0.348085 0.020406
vt 0.346854 0.006709
vt 0.647599 0.006709
vt 0.634533 0.020406
vt 0.973417 0.347122
vt 0.974040 0.348992
vt 0.655326 0.349158
vt 0.655949 0.347287
vt 0.657810 0.664982
vt 0.655941 0.664360
vt 0.970726 0.661513
vt 0.974032 0.662324
vt 0.973409 0.664195
vt 0.656150 0.674236
vt 0.656773 0.672366
vt 0.974334 0.672366
vt 0.974958 0.674236
vt 0.658643 0.671743
vt 0.972465 0.671743
vt 0.656150 0.987475
vt 0.656150 0.975609
vt 0.974958 0.975609
vt 0.974958 0.987475
vt 0.670163 0.963036
vt 0.656150 0.975609
vt 0.656150 0.674236
vt 0.670163 0.749528
vt 0.670163 0.749528
vt 0.959623 0.749528
vt 0.959623 0.749528
vt 0.974958 0.674236
vt 0.974958 0.975609
vt 0.959623 0.963036
vt 0.670163 0.963036
vt 0.974040 0.360862
vt 0.970734 0.360864
vt 0.971540 0.664819
vt 0.312773 0.205019
vt 0.324640 0.205019
vt 0.324656 0.222979
vt 0.312789 0.222979
vt 0.011416 0.222979
vt 0.011400 0.205019
vt 0.312811 0.200783
vt 0.312772 0.182822
vt 0.324639 0.182822
vt 0.324678 0.200783
vt 0.325249 0.138430
vt 0.325220 0.156391
vt 0.011400 0.156391
vt 0.011429 0.138430
vt 0.011400 0.182822
vt 0.011440 0.200783
vt 0.011410 0.178587
vt 0.011400 0.160626
vt 0.325221 0.160626
vt 0.325231 0.178587
vt 0.327219 0.138430
vt 0.327191 0.156391
vt 0.326610 0.182822
vt 0.326649 0.200783
vt 0.009430 0.156391
vt 0.009458 0.138430
vt 0.326611 0.205019
vt 0.326627 0.222979
vt 0.009469 0.200783
vt 0.009430 0.182822
vt 0.327192 0.160626
vt 0.327202 0.178587
vt 0.009445 0.222979
vt 0.009430 0.205019
vt 0.009439 0.178587
vt 0.009430 0.160626
vn 1.0000 0.0000 0.0000
vn 0.0000 -1.0000 0.0000
vn -0.0000 0.0000 -1.0000
vn -1.0000 -0.0000 0.0000
vn -0.0000 1.0000 0.0000
vn 0.0000 0.0000 1.0000
vn 0.9990 -0.0453 0.0000
vn 1.0000 0.0011 0.0001
vn 1.0000 0.0043 0.0000
vn -0.9997 -0.0243 0.0000
vn -0.9968 -0.0796 0.0000
vn -0.0010 -1.0000 0.0000
vn -0.0039 -1.0000 0.0000
vn 0.0010 -1.0000 -0.0001
vn 0.0039 -1.0000 0.0000
vn -1.0000 0.0022 0.0000
vn 0.0010 1.0000 0.0000
vn 0.0039 1.0000 0.0000
vn -0.0010 1.0000 -0.0001
vn -0.0039 1.0000 0.0000
vn -0.3162 -0.9487 0.0000
vn -0.9487 -0.3162 0.0000
vn 0.3162 -0.9487 0.0000
vn 0.9487 -0.3162 0.0000
vn -0.9487 0.3162 0.0000
vn -0.3162 0.9487 0.0000
vn 0.9487 0.3162 0.0000
vn 0.3162 0.9487 0.0000
f 4/1/1 1/2/1 2/3/1
f 2/3/1 3/4/1 4/1/1
f 8/5/2 5/6/2 6/7/2
f 6/7/2 7/8/2 8/5/2
f 12/9/1 9/10/1 10/11/1
f 10/11/1 11/12/1 12/9/1
f 20/13/1 19/14/1 11/12/1
f 11/12/1 10/11/1 20/13/1
f 24/15/3 21/16/3 22/17/3
f 22/17/3 23/18/3 24/15/3
f 28/19/3 25/20/3 26/21/3
f 26/21/3 27/22/3 28/19/3
f 32/23/4 29/24/4 30/25/4
f 30/25/4 31/26/4 32/23/4
f 36/27/5 33/28/5 34/29/5
f 34/29/5 35/30/5 36/27/5
f 40/31/4 37/32/4 38/33/4
f 38/33/4 39/34/4 40/31/4
f 52/35/4 38/33/4 37/32/4
f 37/32/4 51/36/4 52/35/4
f 56/37/2 53/38/2 54/39/2
f 54/39/2 55/40/2 56/37/2
f 60/41/5 57/42/5 58/43/5
f 58/43/5 59/44/5 60/41/5
f 64/45/6 61/46/6 62/47/6
f 62/47/6 63/48/6 64/45/6
f 72/49/3 69/50/3 70/51/3
f 70/51/3 71/52/3 72/49/3
f 70/51/3 73/53/3 71/52/3
f 71/52/3 73/53/3 74/54/3
f 74/54/3 75/55/3 71/52/3
f 74/54/3 76/56/3 75/55/3
f 75/55/3 76/56/3 77/57/3
f 77/57/3 78/58/3 75/55/3
f 78/58/3 77/57/3 69/50/3
f 69/50/3 72/49/3 78/58/3
f 83/59/3 84/60/3 27/22/3
f 28/19/3 89/61/3 90/62/3
f 21/16/3 99/63/3 100/64/3
f 101/65/3 102/66/3 103/67/3
f 107/68/6 104/69/6 105/70/6
f 105/70/6 106/71/6 107/68/6
f 104/69/6 108/72/6 109/73/6
f 109/73/6 105/70/6 104/69/6
f 113/74/6 110/75/6 111/76/6
f 111/76/6 112/77/6 113/74/6
f 61/46/6 113/74/6 112/77/6
f 112/77/6 62/47/6 61/46/6
f 117/78/6 114/79/6 115/80/6
f 115/80/6 116/81/6 117/78/6
f 119/82/6 107/68/6 106/71/6
f 106/71/6 118/83/6 119/82/6
f 123/84/6 120/85/6 121/86/6
f 121/86/6 122/87/6 123/84/6
f 122/87/6 111/76/6 110/75/6
f 110/75/6 124/88/6 122/87/6
f 84/60/3 125/89/3 126/90/3
f 126/90/3 27/22/3 84/60/3
f 26/21/3 83/59/3 27/22/3
f 101/65/3 103/67/3 127/91/3
f 101/65/3 126/90/3 125/89/3
f 125/89/3 102/66/3 101/65/3
f 21/16/3 100/64/3 22/17/3
f 21/16/3 101/65/3 127/91/3
f 127/91/3 99/63/3 21/16/3
f 28/19/3 90/62/3 25/20/3
f 89/61/3 28/19/3 24/15/3
f 24/15/3 23/18/3 89/61/3
f 16/92/1 13/93/7 14/94/7
f 14/94/7 15/95/1 16/92/1
f 18/96/8 17/97/9 16/92/1
f 16/92/1 15/95/1 18/96/8
f 44/98/4 41/99/4 42/100/10
f 42/100/10 43/101/11 44/98/4
f 48/102/12 45/103/13 46/104/14
f 46/104/14 47/105/15 48/102/12
f 50/106/16 41/99/4 44/98/4
f 44/98/4 49/107/16 50/106/16
f 68/108/17 65/109/18 66/110/19
f 66/110/19 67/111/20 68/108/17
f 45/103/13 48/102/12 79/112/21
f 79/112/21 80/113/21 45/103/13
f 82/114/22 81/115/22 43/101/11
f 43/101/11 42/100/10 82/114/22
f 47/105/15 46/104/14 85/116/23
f 85/116/23 86/117/23 47/105/15
f 88/118/24 87/119/24 14/94/7
f 14/94/7 13/93/7 88/118/24
f 50/106/16 49/107/16 91/120/25
f 91/120/25 92/121/25 50/106/16
f 94/122/26 93/123/26 67/111/20
f 67/111/20 66/110/19 94/122/26
f 17/97/9 18/96/8 95/124/27
f 95/124/27 96/125/27 17/97/9
f 98/126/28 97/127/28 65/109/18
f 65/109/18 68/108/17 98/126/28
