# Blender v2.82 (sub 7) OBJ File: ''
# www.blender.org
mtllib default.mtl
usemtl default
v -0.412221 0.179252 0.033224
v 0.405735 -0.184284 0.033224
v -0.412221 -0.184284 0.033224
v 0.405735 0.179252 0.033224
v -0.412221 -0.184284 0.038790
v 0.405735 0.179252 0.038790
v 0.405735 -0.184284 0.038790
v -0.412221 0.179252 0.038790
v -0.412221 -0.184284 0.033110
v 0.405735 -0.184284 0.016069
v 0.405735 -0.184284 0.033110
v -0.412221 -0.184284 0.016069
v 0.405735 0.179252 0.033110
v -0.412221 0.179252 0.016069
v 0.405735 0.179252 0.016069
v -0.412221 0.179252 0.033110
vt 0.449132 0.445588
vt 0.645574 0.004412
vt 0.645574 0.445588
vt 0.449132 0.004412
vt 0.996346 0.842558
vt 0.993338 0.401382
vt 0.996346 0.401382
vt 0.851188 0.998039
vt 0.854185 0.801961
vt 0.854185 0.998039
vt 0.996406 0.401382
vt 0.999414 0.842558
vt 0.996406 0.842558
vt 0.847939 0.998039
vt 0.850937 0.801961
vt 0.850937 0.998039
vt 0.993338 0.842558
vt 0.851188 0.801961
vt 0.999414 0.401382
vt 0.847939 0.801961
vt 0.645574 0.454412
vt 0.449132 0.895588
vt 0.449132 0.454412
vt 0.645574 0.895588
vt 0.437867 0.475751
vt 0.447075 0.916928
vt 0.437867 0.916928
vt 0.447075 0.475751
vt 0.984040 0.595009
vt 0.993216 0.398931
vt 0.993216 0.595009
vt 0.845945 0.004412
vt 0.649503 0.004412
vt 0.845945 0.445588
vt 0.993290 0.001961
vt 0.984113 0.198039
vt 0.984113 0.001961
vt 0.845945 0.454412
vt 0.649503 0.454412
vt 0.845945 0.895588
vt 0.984040 0.398931
vt 0.649503 0.445588
vt 0.993290 0.198039
vt 0.649503 0.895588
vt 0.425925 0.475751
vt 0.435133 0.916927
vt 0.425925 0.916927
vt 0.435133 0.475751
vn 0.0000 0.0000 -1.0000
vn 0.0000 -1.0000 0.0000
vn -1.0000 0.0000 0.0000
vn -0.0000 1.0000 0.0000
vn 1.0000 0.0000 0.0000
vn -0.0000 0.0000 1.0000
vn -0.0208 -0.0234 0.9995
vn 0.0208 -0.0468 0.9987
vn 0.0208 -0.0234 -0.9995
vn -0.0208 -0.0468 -0.9987
vn 0.0208 0.0234 0.9995
vn -0.0208 0.0234 -0.9995
vn 0.0208 0.0468 -0.9987
vn -0.0208 0.0468 0.9987
f 1/1/1 2/2/1 3/3/1
f 2/2/1 1/1/1 4/4/1
f 2/5/2 5/6/2 3/7/2
f 5/8/3 1/9/3 3/10/3
f 1/11/4 6/12/4 4/13/4
f 6/14/5 2/15/5 4/16/5
f 5/6/2 2/5/2 7/17/2
f 1/9/3 5/8/3 8/18/3
f 6/12/4 1/11/4 8/19/4
f 2/15/5 6/14/5 7/20/5
f 6/21/6 5/22/6 7/23/6
f 5/22/6 6/21/6 8/24/6
f 9/25/7 10/26/2 11/27/8
f 10/26/9 9/25/2 12/28/10
f 10/29/9 13/30/11 11/31/8
f 11/32/8 13/33/11 9/34/7
f 9/35/7 14/36/12 12/37/10
f 12/38/10 14/39/12 10/40/9
f 13/30/11 10/29/9 15/41/13
f 16/42/14 9/34/7 13/33/11
f 14/36/12 9/35/7 16/43/14
f 15/44/13 10/40/9 14/39/12
f 14/45/12 13/46/4 15/47/13
f 13/46/11 14/45/4 16/48/14
